<svg width="297" height="32" viewBox="0 0 297 32" fill="none" xmlns="http://www.w3.org/2000/svg">
<path d="M7.352 3.4H18.296V7.176H7.224C5.272 7.176 4.408 8.232 4.408 9.736C4.408 11.048 5.08 12.296 7.608 12.296H12.664C18.552 12.296 19.928 15.56 19.928 18.664C19.928 22.312 17.976 25 13.048 25H1.016V21.224H13.176C15.224 21.224 16.152 20.104 16.152 18.536C16.152 17.128 15.416 15.848 12.76 15.848H7.736C1.976 15.848 0.632 12.616 0.632 9.608C0.632 6.024 2.552 3.4 7.352 3.4ZM30.076 8.104H34.748C39.228 8.104 42.044 10.856 42.044 16.552C42.044 22.248 39.228 25 34.748 25H27.26V31.784H23.868V15.336C23.868 10.472 26.012 8.104 30.076 8.104ZM27.26 15.496V21.704H34.396C37.34 21.704 38.62 20.2 38.62 16.552C38.62 12.904 37.34 11.368 34.396 11.368H31.068C28.316 11.368 27.26 12.584 27.26 15.496ZM46.7915 8.104H56.9355C61.1595 8.104 62.8235 10.472 62.8235 13.672V21.608C62.8235 24.04 62.1835 25 59.3355 25H51.4315C47.4315 25 45.7675 23.048 45.7675 19.848C45.7675 16.776 47.3035 14.984 51.4635 14.984H59.4955V13.704C59.4955 12.392 58.7595 11.368 56.9035 11.368H46.7915V8.104ZM58.5675 21.704C59.2395 21.704 59.4955 21.448 59.4955 20.84V17.672H51.5275C49.7355 17.672 49.0955 18.408 49.0955 19.656C49.0955 20.904 49.7675 21.704 51.4635 21.704H58.5675ZM74.1475 8.104H82.8515V11.368H74.4675C71.5235 11.368 70.2435 12.904 70.2435 16.552C70.2435 20.2 71.5235 21.704 74.4675 21.704H82.8515V25H74.1475C69.6355 25 66.8195 22.248 66.8195 16.552C66.8195 10.856 69.6355 8.104 74.1475 8.104ZM92.4055 8.104H97.8775C101.878 8.104 103.574 10.024 103.574 13.288C103.574 16.392 102.006 18.152 97.8455 18.152H89.8135V19.368C89.8135 20.712 90.5495 21.704 92.4055 21.704H102.742V25H92.4055C88.1815 25 86.5175 22.632 86.5175 19.432V13.672C86.5175 10.472 88.1815 8.104 92.4055 8.104ZM89.8135 13.704V15.496H97.7495C99.5735 15.496 100.246 14.728 100.246 13.48C100.246 12.2 99.5095 11.368 97.8455 11.368H92.4055C90.5495 11.368 89.8135 12.392 89.8135 13.704ZM116.929 7.624L110.081 25H105.921L113.505 5.8C114.305 3.784 115.777 3.016 118.049 3.016C120.289 3.016 121.76 3.784 122.529 5.8L129.825 25H125.633L119.073 7.624C118.881 7.112 118.529 6.888 118.017 6.888C117.505 6.888 117.153 7.112 116.929 7.624ZM132.838 0.775999H136.23V25H132.838V0.775999ZM141.088 8.104H144.48V25H141.088V8.104ZM141.088 1.736H144.512V5.672H141.088V1.736ZM154.874 8.104H160.346C164.346 8.104 166.042 10.024 166.042 13.288C166.042 16.392 164.474 18.152 160.314 18.152H152.282V19.368C152.282 20.712 153.018 21.704 154.874 21.704H165.21V25H154.874C150.65 25 148.986 22.632 148.986 19.432V13.672C148.986 10.472 150.65 8.104 154.874 8.104ZM152.282 13.704V15.496H160.218C162.042 15.496 162.714 14.728 162.714 13.48C162.714 12.2 161.978 11.368 160.314 11.368H154.874C153.018 11.368 152.282 12.392 152.282 13.704ZM172.581 8.104H179.557C185.285 8.104 188.069 10.824 188.069 15.496V25H184.645V15.496C184.645 12.84 183.109 11.368 179.557 11.368H174.021C173.733 11.368 173.605 11.528 173.605 11.848V25H170.213V10.728C170.213 8.744 170.885 8.104 172.581 8.104ZM192.454 20.648H196.102V25H192.454V20.648ZM206.508 3.4H217.452V7.176H206.38C204.428 7.176 203.564 8.232 203.564 9.736C203.564 11.048 204.236 12.296 206.764 12.296H211.82C217.708 12.296 219.084 15.56 219.084 18.664C219.084 22.312 217.132 25 212.204 25H200.172V21.224H212.332C214.38 21.224 215.308 20.104 215.308 18.536C215.308 17.128 214.572 15.848 211.916 15.848H206.892C201.132 15.848 199.788 12.616 199.788 9.608C199.788 6.024 201.708 3.4 206.508 3.4ZM229.616 8.104H233.168C237.648 8.104 240.496 10.856 240.496 16.552C240.496 22.248 237.648 25 233.168 25H229.616C225.104 25 222.288 22.248 222.288 16.552C222.288 10.856 225.104 8.104 229.616 8.104ZM232.848 11.368H229.936C226.992 11.368 225.712 12.904 225.712 16.552C225.712 20.2 226.992 21.704 229.936 21.704H232.848C235.76 21.704 237.072 20.2 237.072 16.552C237.072 12.904 235.76 11.368 232.848 11.368ZM251.085 8.104H259.789V11.368H251.405C248.461 11.368 247.181 12.904 247.181 16.552C247.181 20.2 248.461 21.704 251.405 21.704H259.789V25H251.085C246.573 25 243.757 22.248 243.757 16.552C243.757 10.856 246.573 8.104 251.085 8.104ZM263.807 8.104H267.199V25H263.807V8.104ZM263.807 1.736H267.231V5.672H263.807V1.736ZM272.729 8.104H282.873C287.097 8.104 288.761 10.472 288.761 13.672V21.608C288.761 24.04 288.121 25 285.273 25H277.369C273.369 25 271.705 23.048 271.705 19.848C271.705 16.776 273.241 14.984 277.401 14.984H285.433V13.704C285.433 12.392 284.697 11.368 282.841 11.368H272.729V8.104ZM284.505 21.704C285.177 21.704 285.433 21.448 285.433 20.84V17.672H277.465C275.673 17.672 275.033 18.408 275.033 19.656C275.033 20.904 275.705 21.704 277.401 21.704H284.505ZM293.557 0.775999H296.949V25H293.557V0.775999Z" fill="#1C1C1E"/>
</svg>
