<svg width="18" height="18" viewBox="0 0 18 18" fill="none" xmlns="http://www.w3.org/2000/svg">
<path d="M2.25 15.75V5.25H5.25V2.25H12.75V8.25H15.75V15.75H9.75V12.75H8.25V15.75H2.25ZM3.75 14.25H5.25V12.75H3.75V14.25ZM3.75 11.25H5.25V9.75H3.75V11.25ZM3.75 8.25H5.25V6.75H3.75V8.25ZM6.75 11.25H8.25V9.75H6.75V11.25ZM6.75 8.25H8.25V6.75H6.75V8.25ZM6.75 5.25H8.25V3.75H6.75V5.25ZM9.75 11.25H11.25V9.75H9.75V11.25ZM9.75 8.25H11.25V6.75H9.75V8.25ZM9.75 5.25H11.25V3.75H9.75V5.25ZM12.75 14.25H14.25V12.75H12.75V14.25ZM12.75 11.25H14.25V9.75H12.75V11.25Z" fill="black"/>
</svg>
