<svg width="18" height="18" viewBox="0 0 18 18" fill="none" xmlns="http://www.w3.org/2000/svg">
<path d="M4.3875 12.825C5.025 12.3375 5.7375 11.9531 6.525 11.6719C7.3125 11.3906 8.1375 11.25 9 11.25C9.8625 11.25 10.6875 11.3906 11.475 11.6719C12.2625 11.9531 12.975 12.3375 13.6125 12.825C14.05 12.3125 14.3906 11.7313 14.6344 11.0813C14.8781 10.4313 15 9.7375 15 9C15 7.3375 14.4156 5.92188 13.2469 4.75313C12.0781 3.58438 10.6625 3 9 3C7.3375 3 5.92188 3.58438 4.75313 4.75313C3.58438 5.92188 3 7.3375 3 9C3 9.7375 3.12188 10.4313 3.36563 11.0813C3.60938 11.7313 3.95 12.3125 4.3875 12.825ZM9 9.75C8.2625 9.75 7.64063 9.49688 7.13438 8.99063C6.62813 8.48438 6.375 7.8625 6.375 7.125C6.375 6.3875 6.62813 5.76563 7.13438 5.25938C7.64063 4.75313 8.2625 4.5 9 4.5C9.7375 4.5 10.3594 4.75313 10.8656 5.25938C11.3719 5.76563 11.625 6.3875 11.625 7.125C11.625 7.8625 11.3719 8.48438 10.8656 8.99063C10.3594 9.49688 9.7375 9.75 9 9.75ZM9 16.5C7.9625 16.5 6.9875 16.3031 6.075 15.9094C5.1625 15.5156 4.36875 14.9813 3.69375 14.3063C3.01875 13.6313 2.48438 12.8375 2.09063 11.925C1.69688 11.0125 1.5 10.0375 1.5 9C1.5 7.9625 1.69688 6.9875 2.09063 6.075C2.48438 5.1625 3.01875 4.36875 3.69375 3.69375C4.36875 3.01875 5.1625 2.48438 6.075 2.09063C6.9875 1.69688 7.9625 1.5 9 1.5C10.0375 1.5 11.0125 1.69688 11.925 2.09063C12.8375 2.48438 13.6313 3.01875 14.3063 3.69375C14.9813 4.36875 15.5156 5.1625 15.9094 6.075C16.3031 6.9875 16.5 7.9625 16.5 9C16.5 10.0375 16.3031 11.0125 15.9094 11.925C15.5156 12.8375 14.9813 13.6313 14.3063 14.3063C13.6313 14.9813 12.8375 15.5156 11.925 15.9094C11.0125 16.3031 10.0375 16.5 9 16.5ZM9 15C9.6625 15 10.2875 14.9031 10.875 14.7094C11.4625 14.5156 12 14.2375 12.4875 13.875C12 13.5125 11.4625 13.2344 10.875 13.0406C10.2875 12.8469 9.6625 12.75 9 12.75C8.3375 12.75 7.7125 12.8469 7.125 13.0406C6.5375 13.2344 6 13.5125 5.5125 13.875C6 14.2375 6.5375 14.5156 7.125 14.7094C7.7125 14.9031 8.3375 15 9 15ZM9 8.25C9.325 8.25 9.59375 8.14375 9.80625 7.93125C10.0188 7.71875 10.125 7.45 10.125 7.125C10.125 6.8 10.0188 6.53125 9.80625 6.31875C9.59375 6.10625 9.325 6 9 6C8.675 6 8.40625 6.10625 8.19375 6.31875C7.98125 6.53125 7.875 6.8 7.875 7.125C7.875 7.45 7.98125 7.71875 8.19375 7.93125C8.40625 8.14375 8.675 8.25 9 8.25Z" fill="black"/>
</svg>
