<svg width="16" height="16" viewBox="0 0 16 16" fill="none" xmlns="http://www.w3.org/2000/svg">
<path d="M8.00016 11.3333C8.18905 11.3333 8.34738 11.2694 8.47516 11.1417C8.60294 11.0139 8.66683 10.8556 8.66683 10.6667C8.66683 10.4778 8.60294 10.3194 8.47516 10.1917C8.34738 10.0639 8.18905 10 8.00016 10C7.81127 10 7.65294 10.0639 7.52516 10.1917C7.39738 10.3194 7.3335 10.4778 7.3335 10.6667C7.3335 10.8556 7.39738 11.0139 7.52516 11.1417C7.65294 11.2694 7.81127 11.3333 8.00016 11.3333ZM7.3335 8.66666H8.66683V4.66667H7.3335V8.66666ZM8.00016 14.6667C7.07794 14.6667 6.21127 14.4917 5.40016 14.1417C4.58905 13.7917 3.8835 13.3167 3.2835 12.7167C2.6835 12.1167 2.2085 11.4111 1.8585 10.6C1.5085 9.78889 1.3335 8.92222 1.3335 8C1.3335 7.07778 1.5085 6.21111 1.8585 5.4C2.2085 4.58889 2.6835 3.88333 3.2835 3.28333C3.8835 2.68333 4.58905 2.20833 5.40016 1.85833C6.21127 1.50833 7.07794 1.33333 8.00016 1.33333C8.92238 1.33333 9.78905 1.50833 10.6002 1.85833C11.4113 2.20833 12.1168 2.68333 12.7168 3.28333C13.3168 3.88333 13.7918 4.58889 14.1418 5.4C14.4918 6.21111 14.6668 7.07778 14.6668 8C14.6668 8.92222 14.4918 9.78889 14.1418 10.6C13.7918 11.4111 13.3168 12.1167 12.7168 12.7167C12.1168 13.3167 11.4113 13.7917 10.6002 14.1417C9.78905 14.4917 8.92238 14.6667 8.00016 14.6667Z" fill="#D93025"/>
</svg>
