<svg width="26" height="26" viewBox="0 0 26 26" fill="none" xmlns="http://www.w3.org/2000/svg">
<path fill-rule="evenodd" clip-rule="evenodd" d="M20.4706 12.9683C19.8368 15.4578 19.8284 18.3582 21.6449 20.1747L25.2649 23.7947C25.6709 24.2007 25.6709 24.8589 25.2649 25.2649C24.8589 25.6709 24.2007 25.6709 23.7947 25.2649L20.1747 21.6449C18.3582 19.8284 15.4578 19.8368 12.9683 20.4706C12.1455 20.68 11.2836 20.7913 10.3957 20.7913C4.6543 20.7913 0 16.137 0 10.3957C0 4.6543 4.6543 0 10.3957 0C16.137 0 20.7913 4.6543 20.7913 10.3957C20.7913 11.2836 20.68 12.1455 20.4706 12.9683ZM10.3957 18.7122C14.9888 18.7122 18.7122 14.9888 18.7122 10.3957C18.7122 5.80258 14.9888 2.07913 10.3957 2.07913C5.80258 2.07913 2.07913 5.80258 2.07913 10.3957C2.07913 14.9888 5.80258 18.7122 10.3957 18.7122Z" fill="white"/>
</svg>
