<svg width="141" height="25" viewBox="0 0 141 25" fill="none" xmlns="http://www.w3.org/2000/svg">
<path d="M5.264 2.8H13.472V5.632H5.168C3.704 5.632 3.056 6.424 3.056 7.552C3.056 8.536 3.56 9.472 5.456 9.472H9.248C13.664 9.472 14.696 11.92 14.696 14.248C14.696 16.984 13.232 19 9.536 19H0.512V16.168H9.632C11.168 16.168 11.864 15.328 11.864 14.152C11.864 13.096 11.312 12.136 9.32 12.136H5.552C1.232 12.136 0.224 9.712 0.224 7.456C0.224 4.768 1.664 2.8 5.264 2.8ZM22.307 6.328H25.811C29.171 6.328 31.283 8.392 31.283 12.664C31.283 16.936 29.171 19 25.811 19H20.195V24.088H17.651V11.752C17.651 8.104 19.259 6.328 22.307 6.328ZM20.195 11.872V16.528H25.547C27.755 16.528 28.715 15.4 28.715 12.664C28.715 9.928 27.755 8.776 25.547 8.776H23.051C20.987 8.776 20.195 9.688 20.195 11.872ZM34.8436 6.328H42.4516C45.6196 6.328 46.8676 8.104 46.8676 10.504V16.456C46.8676 18.28 46.3876 19 44.2516 19H38.3236C35.3236 19 34.0756 17.536 34.0756 15.136C34.0756 12.832 35.2276 11.488 38.3476 11.488H44.3716V10.528C44.3716 9.544 43.8196 8.776 42.4276 8.776H34.8436V6.328ZM43.6756 16.528C44.1796 16.528 44.3716 16.336 44.3716 15.88V13.504H38.3956C37.0516 13.504 36.5716 14.056 36.5716 14.992C36.5716 15.928 37.0756 16.528 38.3476 16.528H43.6756ZM55.3606 6.328H61.8886V8.776H55.6006C53.3926 8.776 52.4326 9.928 52.4326 12.664C52.4326 15.4 53.3926 16.528 55.6006 16.528H61.8886V19H55.3606C51.9766 19 49.8646 16.936 49.8646 12.664C49.8646 8.392 51.9766 6.328 55.3606 6.328ZM69.0541 6.328H73.1581C76.1581 6.328 77.4301 7.768 77.4301 10.216C77.4301 12.544 76.2541 13.864 73.1341 13.864H67.1101V14.776C67.1101 15.784 67.6621 16.528 69.0541 16.528H76.8061V19H69.0541C65.8861 19 64.6381 17.224 64.6381 14.824V10.504C64.6381 8.104 65.8861 6.328 69.0541 6.328ZM67.1101 10.528V11.872H73.0621C74.4301 11.872 74.9341 11.296 74.9341 10.36C74.9341 9.4 74.3821 8.776 73.1341 8.776H69.0541C67.6621 8.776 67.1101 9.544 67.1101 10.528ZM87.4464 5.968L82.3104 19H79.1904L84.8784 4.6C85.4784 3.088 86.5824 2.512 88.2864 2.512C89.9664 2.512 91.0704 3.088 91.6464 4.6L97.1184 19H93.9744L89.0544 5.968C88.9104 5.584 88.6464 5.416 88.2624 5.416C87.8784 5.416 87.6144 5.584 87.4464 5.968ZM99.3787 0.831999H101.923V19H99.3787V0.831999ZM105.566 6.328H108.11V19H105.566V6.328ZM105.566 1.552H108.134V4.504H105.566V1.552ZM115.906 6.328H120.01C123.01 6.328 124.282 7.768 124.282 10.216C124.282 12.544 123.106 13.864 119.986 13.864H113.962V14.776C113.962 15.784 114.514 16.528 115.906 16.528H123.658V19H115.906C112.738 19 111.49 17.224 111.49 14.824V10.504C111.49 8.104 112.738 6.328 115.906 6.328ZM113.962 10.528V11.872H119.914C121.282 11.872 121.786 11.296 121.786 10.36C121.786 9.4 121.234 8.776 119.986 8.776H115.906C114.514 8.776 113.962 9.544 113.962 10.528ZM129.186 6.328H134.418C138.714 6.328 140.802 8.368 140.802 11.872V19H138.234V11.872C138.234 9.88 137.082 8.776 134.418 8.776H130.266C130.05 8.776 129.954 8.896 129.954 9.136V19H127.41V8.296C127.41 6.808 127.914 6.328 129.186 6.328Z" fill="#1C1C1E"/>
</svg>
